<?xml version="1.0" encoding="iso-8859-1"?>
<!-- Generator: Adobe Illustrator 19.0.0, SVG Export Plug-In . SVG Version: 6.00 Build 0)  -->
<svg xmlns="http://www.w3.org/2000/svg" xmlns:xlink="http://www.w3.org/1999/xlink" version="1.1" id="Capa_1" x="0px" y="0px" viewBox="0 0 59.989 59.989" style="enable-background:new 0 0 59.989 59.989;" xml:space="preserve" width="512px" height="512px">
<g>
	<g>
		<g>
			<path d="M59.696,21.909c-0.223-0.223-0.533-0.323-0.852-0.282l-9.695,1.412c-9.015,1.313-17.419,9.718-18.732,18.732     l-0.423,2.906l-0.423-2.906c-1.313-9.015-9.716-17.418-18.731-18.732l-9.695-1.412c-0.315-0.041-0.629,0.06-0.852,0.282     c-0.224,0.224-0.328,0.539-0.282,0.852l1.412,9.695c1.314,9.016,9.718,17.419,18.732,18.731L29.85,52.6     c0.049,0.007,0.097,0.011,0.145,0.011c0.01,0.001,0.015,0.001,0.02,0c0.004,0,0.007-0.002,0.011-0.002     c0.038-0.001,0.075-0.003,0.114-0.008l9.695-1.413c9.016-1.313,17.419-9.716,18.731-18.731l1.413-9.695     C60.024,22.448,59.92,22.132,59.696,21.909z" fill="#fb6e4f"/>
			<path d="M48.861,21.059l3.369-0.491l-0.604-6.912l-10.521,4.906c-0.29,0.125-0.58,0.261-0.868,0.405     c0.67,1.375,1.222,2.869,1.636,4.437C44.093,22.23,46.455,21.41,48.861,21.059z" fill="#fb6e4f"/>
			<path d="M18.128,23.412c0.413-1.564,0.966-3.052,1.642-4.436c-0.287-0.143-0.573-0.277-0.859-0.4L8.362,13.657l-0.604,6.912     l3.369,0.49C13.537,21.411,15.903,22.234,18.128,23.412z" fill="#fb6e4f"/>
			<path d="M29.991,36.126c2.04-4.694,5.7-8.889,10.087-11.686c-0.676-2.822-1.835-5.421-3.408-7.53l-6.676-9.533l-6.659,9.509     c-1.585,2.126-2.748,4.73-3.425,7.554C24.297,27.237,27.951,31.433,29.991,36.126z" fill="#fb6e4f"/>
		</g>
	</g>
</g>
<g>
</g>
<g>
</g>
<g>
</g>
<g>
</g>
<g>
</g>
<g>
</g>
<g>
</g>
<g>
</g>
<g>
</g>
<g>
</g>
<g>
</g>
<g>
</g>
<g>
</g>
<g>
</g>
<g>
</g>
</svg>
