<svg xmlns="http://www.w3.org/2000/svg" width="512" height="512"><g fill="#fb6e4f"><path d="M476.379 343.416c-11.629-7.263-26.457-8.008-38.781-1.991L350.23 383.83v-4.608c0-22.15-16.967-39.603-39.117-39.603h-84.619c-17.265 0-34.919-2.873-51.411-7.976l-55.124-17.18v-22.227c0-7.105-4.688-13.079-11.793-13.079H30.982c-7.105 0-13.936 5.974-13.936 13.079v204.543c0 7.105 6.832 12.649 13.936 12.649h77.186c7.105 0 11.793-5.546 11.793-12.649v-20.594l9.203 6.855c23.314 18.75 53.165 28.96 83.085 28.96h74.352c26.605 0 52.282-7.813 74.255-22.81l116.866-79.707a39.42 39.42 0 0 0 17.232-32.594c0-13.714-6.944-26.209-18.575-33.473zM94.23 483.698H42.773V304.884H94.23v178.814zm368.988-95.409L346.352 467.94c-17.681 12.068-38.343 18.332-59.751 18.332h-74.352c-24.074 0-48.201-8.195-66.961-23.283l-25.329-19.823V341.395l47.517 14.825c18.959 5.869 39.171 9.127 59.019 9.127h84.619c7.963 0 13.388 5.911 13.388 13.874v15.552c-15.437 4.217-51.568 11.686-88.128 5.803-7.01-1.126-13.353 3.642-14.481 10.657-1.128 7.015 3.774 13.616 10.789 14.745 11.186 1.8 22.3 2.521 32.835 2.521 41.39 0 74.818-11.146 76.985-11.885a.23.23 0 0 1 .026-.003.771.771 0 0 1 .055-.015c.476-.163.937-.358 1.38-.57.032-.015.068-.024.099-.04l105.351-51.443c4.36-2.129 9.221-1.876 13.336.695s6.476 6.827 6.476 11.68a13.76 13.76 0 0 1-6.007 11.371zM36.692 169.017c11.632 7.263 25.6 8.014 37.923 1.998l86.511-42.398v4.608c0 22.15 18.682 40.444 40.833 40.444h84.619c17.266 0 34.061 2.452 50.553 7.557l54.267 16.76v22.227c0 7.105 6.403 12.633 13.508 12.633h77.186c7.105 0 12.221-5.528 12.221-12.633V15.669c-.001-7.105-5.117-13.096-12.222-13.096h-77.186c-7.105 0-13.508 5.991-13.508 13.096v20.594l-8.345-7.078C359.736 10.434 330.741 0 300.821 0h-74.352c-26.603 0-52.281 8.034-74.257 23.034L35.348 102.853a39.52 39.52 0 0 0-17.23 32.65c-.001 13.713 6.944 26.249 18.574 33.514zM417.125 28.302h51.457v178.814h-51.457V28.302zM49.853 124.156l116.866-79.873c17.682-12.068 38.345-18.554 59.751-18.554h74.352c24.074 0 47.345 8.417 66.105 23.506l24.469 20.047v101.771l-46.658-14.404c-18.958-5.869-38.314-8.708-58.161-8.708h-84.619c-7.963 0-15.104-6.753-15.104-14.716v-15.553c16.724-4.217 52.422-11.686 88.986-5.802 7.008 1.127 13.782-3.643 14.911-10.657 1.128-7.015-3.56-13.616-10.575-14.745-55.072-8.865-106.854 8.399-109.679 9.361-.005.001.012.003.006.005-.013.005-.023.012-.033.015-.266.091-.5.195-.726.304-.248.103-.498.188-.741.306l-105.35 51.443c-4.361 2.128-9.219 1.876-13.334-.695s-6.475-6.827-6.475-11.678a13.77 13.77 0 0 1 6.009-11.373z"/><path d="M261.715 212.807a40.42 40.42 0 0 0-20.281-5.478c-22.251 0-40.354 18.103-40.354 40.355 0 13.198 9.126 28.265 27.899 46.065 12.454 11.807 24.756 20.602 25.273 20.971a12.847 12.847 0 0 0 7.463 2.386 12.85 12.85 0 0 0 7.463-2.386c.517-.369 12.819-9.164 25.273-20.971 18.773-17.798 27.899-32.866 27.899-46.065 0-22.251-18.103-40.355-40.355-40.355a40.411 40.411 0 0 0-20.28 5.478zm34.906 34.879c0 8.187-17.173 26.454-34.911 40.469-17.736-13.995-34.9-32.253-34.9-40.469 0-8.066 6.561-14.627 14.625-14.627 4.151 0 7.984 1.689 10.792 4.757a12.862 12.862 0 0 0 18.976-.001c2.808-3.067 6.641-4.756 10.791-4.756 8.065 0 14.627 6.562 14.627 14.627z"/></g></svg>