<svg xmlns="http://www.w3.org/2000/svg" width="512" height="512" viewBox="0 0 31.466 31.466"><g fill="#fb6e4f"><path d="M30.221 7.011V5.029l-.285-.112c-.1-.039-2.429-.943-5.535-.943-3.328 0-6.194 1.014-8.527 3.014-2.332-2-5.199-3.014-8.527-3.014-3.107 0-5.436.904-5.533.943l-.288.112v1.836C.586 7.041 0 7.356 0 7.87v18.918h13.934c.482.431 1.187.703 1.975.703.789 0 1.493-.272 1.975-.703h13.582V7.87c-.001-.418-.476-.691-1.245-.859zM15.723 25.296c-1.156-.479-5.14-1.992-9.13-1.992-1.577 0-2.974.242-4.163.72V5.655a16.158 16.158 0 0 1 4.916-.779c3.064 0 5.697.927 7.847 2.733v10.965l.53-.584v7.306zm13.593-1.267c-1.277-.514-2.744-.772-4.369-.772-3.988 0-7.783 1.528-8.926 2.03v-7.299l.533.586V7.609c2.149-1.807 4.782-2.733 7.846-2.733 2.322 0 4.221.548 4.916.779v18.374z"/><path d="M4.217 8.071l.187.707c4.705-1.248 8.938 1.062 8.981 1.085l.355-.639c-.181-.101-4.528-2.477-9.523-1.153zm0 2.07l.187.707c4.705-1.249 8.938 1.061 8.981 1.084l.355-.638c-.181-.102-4.528-2.477-9.523-1.153zm0 1.945l.187.707c4.705-1.247 8.938 1.062 8.981 1.085l.355-.639c-.181-.101-4.528-2.476-9.523-1.153zm0 2.132l.187.707c4.705-1.248 8.938 1.062 8.981 1.085l.355-.638c-.181-.103-4.528-2.479-9.523-1.154zm0 1.975l.187.707c4.705-1.247 8.938 1.062 8.981 1.086l.355-.64c-.181-.1-4.528-2.476-9.523-1.153zm0 2.029l.187.707c4.705-1.248 8.938 1.061 8.981 1.084l.355-.639c-.181-.101-4.528-2.475-9.523-1.152zm0 2.035l.187.706c4.705-1.248 8.938 1.062 8.981 1.085l.355-.637c-.181-.103-4.528-2.479-9.523-1.154zm14.361-10.34c.043-.023 4.275-2.332 8.98-1.085l.188-.707c-4.996-1.323-9.342 1.053-9.523 1.154l.355.638zm-.355 1.432l.355.638c.043-.023 4.275-2.333 8.98-1.084l.188-.708c-4.996-1.324-9.342 1.051-9.523 1.154zm0 1.944l.355.639c.043-.024 4.275-2.333 8.98-1.086l.188-.707c-4.996-1.322-9.342 1.053-9.523 1.154zm0 2.133l.355.638c.043-.023 4.275-2.332 8.98-1.084l.188-.707c-4.996-1.326-9.342 1.05-9.523 1.153zm0 1.975l.355.64c.043-.023 4.275-2.333 8.98-1.086l.188-.707c-4.996-1.323-9.342 1.051-9.523 1.153zm0 2.029l.355.638c.043-.023 4.275-2.332 8.98-1.084l.188-.707c-4.996-1.324-9.342 1.051-9.523 1.153zm0 2.034l.355.637c.043-.021 4.275-2.333 8.98-1.084l.188-.707c-4.996-1.324-9.342 1.053-9.523 1.154z"/></g></svg>