<svg xmlns="http://www.w3.org/2000/svg" viewBox="0 0 59.989 59.989" width="512" height="512"><g fill="#fb6e4f"><path d="M59.696 21.909a1.009 1.009 0 0 0-.852-.282l-9.695 1.412c-9.015 1.313-17.419 9.718-18.732 18.732l-.423 2.906-.423-2.906c-1.313-9.015-9.716-17.418-18.731-18.732l-9.695-1.412a.998.998 0 0 0-1.134 1.134l1.412 9.695c1.314 9.016 9.718 17.419 18.732 18.731L29.85 52.6a1.022 1.022 0 0 0 .165.011l.011-.002c.038-.001.075-.003.114-.008l9.695-1.413c9.016-1.313 17.419-9.716 18.731-18.731l1.413-9.695a1.001 1.001 0 0 0-.283-.853z"/><path d="M48.861 21.059l3.369-.491-.604-6.912-10.521 4.906c-.29.125-.58.261-.868.405a24.337 24.337 0 0 1 1.636 4.437c2.22-1.174 4.582-1.994 6.988-2.345zm-30.733 2.353a24.18 24.18 0 0 1 1.642-4.436 16.903 16.903 0 0 0-.859-.4L8.362 13.657l-.604 6.912 3.369.49c2.41.352 4.776 1.175 7.001 2.353zm11.863 12.714c2.04-4.694 5.7-8.889 10.087-11.686-.676-2.822-1.835-5.421-3.408-7.53l-6.676-9.533-6.659 9.509c-1.585 2.126-2.748 4.73-3.425 7.554 4.387 2.797 8.041 6.993 10.081 11.686z"/></g></svg>